<svg version="1.1" xmlns="http://www.w3.org/2000/svg" xmlns:xlink="http://www.w3.org/1999/xlink" xmlns:i="http://ns.adobe.com/AdobeIllustrator/10.0/" xmlns:sketch="http://www.bohemiancoding.com/sketch/ns" height="100%" width="100%" x="0px" y="0px" viewBox="0 0 640 480" xml:space="preserve" preserveAspectRatio="xMidYMid meet" class=""><defs><linearGradient id="textGradient3513616035"><stop offset="0" stop-color="#006838" /><stop offset="1" stop-color="#96cf24" /></linearGradient></defs><defs><linearGradient id="text2Gradient3513616035"><stop offset="0" stop-color="#006838" /><stop offset="1" stop-color="#96cf24" /></linearGradient></defs><rect x="0px" y="0px" width="100%" height="100%" fill="none"/><g class="logo-container-box logoContainerBox" transform="scale(1) translate(0.0000152587890625,0.0000152587890625)"><g class="container_1" transform="scale(1) translate(39.969505310058594,35.010929107666016)"  fill="#2a5020"><g>
	<path class="st0" d="M420.6,79.5c0,0,42.8,39.5,47.7,108.6c0,0,3.7,41-2.4,55.1c0,0,2.9-38.5,0.8-56.3   C464.5,169.2,454.4,117.6,420.6,79.5z"/>
	<path class="st0" d="M412.6,88.4c0,0,33.8,28.4,43.4,78c0,0,9.8,41.1,0.9,82.3c0,0,5-55.1-2.8-80.9   C446.4,141.9,432.3,110.3,412.6,88.4z"/>
	<path class="st0" d="M406.5,98.5c0,0,31.7,29.2,42.8,76.6c0,0,3.7,52,0.6,68.1c0,0-1.7,8.4-2.6,9.8c0,0,2.6-60-3.2-75.6   c-5.8-15.6-0.8-12.4-4.9-22.9C435.1,143.9,416.6,107.1,406.5,98.5z"/>
	<path class="st0" d="M386.3,49.7c0,0-31.7-24.8-70.4-29.2C316,20.5,359.2,30.4,386.3,49.7z"/>
	<path class="st0" d="M380,59.8c0,0-28.3-24.5-68.7-28.8C311.4,31.1,351.3,39,380,59.8z"/>
	<path class="st0" d="M373,69.3c0,0-34.4-27.7-67-28.1C306,41.1,345.8,49.6,373,69.3z"/>
	<path class="st0" d="M271.9,40.7c0,0-26.3,0.2-30.9,0.6c-4.6,0.5-27.4,5.4-30.1,6.7c0,0,12.4-8.9,30.9-9.9S255.4,39.6,271.9,40.7z"/>
	<path class="st0" d="M275.1,28.6c0,0-13.9,0.3-16.5,0.6c-2.6,0.3,0,1.4-9.8,2.1c-9.8,0.8-25.7,2.9-35.3,7.2c0,0,2.3-6,34-9.6   C247.4,28.9,264.9,26.9,275.1,28.6z"/>
	<path class="st0" d="M280.8,16.8c0,0-1.8,2.9-7.2,2.8c-5.4-0.2-10.2-2.1-15.6,1.8c0,0-13,0.2-15.1,0.5c-2.1,0.3-24.5,5.4-27.5,6.6   s1.4-3.1,6.7-4.7C227.4,22,262.3,13.3,280.8,16.8z"/>
	<path class="st0" d="M303.2,394c0,0,2.2-1.7,7.5-3.4c9.9-3.2,26.2-7.5,28.8-8.7c4-1.8,35.2-15.8,48.8-31.4   c13.6-15.6,27.4-25.8,36.5-42.7c0,0-4.1,11.6-13.8,21.7c-9.7,10.1-25.3,27-33.8,32.8c0,0,19.5-11.2,33.2-28s20.6-26.1,21.9-29.1   c0,0-5.5,20-37.9,47c0,0,27.5-21.2,40.2-43.4c0,0,2.4-3.7,3.3-6.1c0,0,2.4-1.1,1.7,1.1c-0.7,2.3-11.2,24.1-28.4,39.9   s-31.9,28.1-59.1,39.9s-40,9.8-40,9.8L303.2,394z"/>
	<path class="st0" d="M152,340.6c-40.2-34.7-59-92.5-57-119.1c2-26.6-1.8-55.1,27.4-102.8s83.7-69,83.7-69   c-34.4,3.7-77.4,52.5-90.1,74.8s-21.6,59-21.6,59c1.7-18.4,7.5-32.6,21.1-62.2s46.2-56,58.9-64.5c12.7-8.6,32.4-17.6,33.3-18   c0.9-0.5,4.9-6.4-23.9,10.6s-48.2,36.2-65.3,63s-26,67.8-26,67.8c0.6-10.9,9-36.1,11.5-42.4c2.4-6.3,14.5-34.6,37.3-59.3   s47.9-37.6,57.2-42.5s10.6-6.4,10.6-6.4c-17.1,3.7-32.9,12.5-66.8,44.8S93.7,158.3,91.6,175s-0.9,65.8,5.4,86.7   s18.5,54.8,57.7,89.5s82.3,40.5,94.2,42.1c11.9,1.5,43.3,0,45.6,0.5s8.4-1.2,9.6-2.8c1.2-1.5,5.8-2.4,5.8-2.4   C247.6,397,192.2,375.3,152,340.6z M137.5,332.4l3.1,2l19.9,18.6C156,351.1,137.5,332.4,137.5,332.4z"/>
</g></g><g class="containerBody" transform="scale(0.33682588127216617) translate(767.6907632010324,472.53431919642856)" ><g class="sampleIconBox" transform="scale(0.7309941085610725) translate(164.86403645833332,88.32001953125001)"><g class="iconFrame" transform="scale(1) translate(450.59999990463257,140)"  fill="#6c945f"><g>
	<path class="st0" d="M133.3,6.4c-10-3.5-20.8-5.4-31.9-5.4c-1.3,0-2.7,0.1-4,0.1C42.1,2.4-2.6,46.4-2.6,100.1
		c0,54.5,46.1,98.9,102.6,98.9c0.2,0,0.5,0,0.7,0s0.5,0,0.7,0c10,0,19.8-1.5,29-4.4c41.8-12.5,72.2-50.2,72.2-94.6
		C202.6,56.7,173.6,19.8,133.3,6.4z M-2.2,100c0-48.2,36-88.4,83.5-96.9C37,12.5,3.7,52.4,3.7,100s33.4,87.5,77.7,96.9
		C33.8,188.4-2.2,148.2-2.2,100z M129.9,194.3c-9.3,2.7-19,4.2-29.2,4.3C47.4,198.2,4,154.1,4,100S47.3,1.8,100.7,1.5
		C111,1.5,120.9,3,130.3,5.9c39.6,12.5,68.5,50,68.5,94.1C198.7,144.3,169.7,181.9,129.9,194.3z M148.8,186.6
		c30-16.9,50.4-49.4,50.4-86.6c0-37-20.1-69.3-50-86.3c31.6,16.8,52.9,49.2,52.9,86.3C202.2,137.3,180.5,169.8,148.8,186.6z"/>
	<path class="st0" d="M194.3,100.5c0.1-12.5-2.2-24.9-6.7-36.5c-4.6-11.6-11.3-22.4-19.9-31.5c-4.3-4.6-9.1-8.7-14.2-12.4
		c-1.3-0.9-2.6-1.7-3.9-2.7l-4-2.5l-4.1-2.3l-4.2-2.1c-11.4-5.2-24-8.1-36.7-8.1l-4.7,0.1L91,3.1c-1.6,0.2-3.1,0.4-4.7,0.6
		c-1.6,0.2-3.2,0.6-4.7,0.8c-6.2,1.4-12.2,3.3-17.9,5.9C58,13,52.5,16.2,47.3,19.9c-5.1,3.7-9.8,7.9-14.4,12.1
		c-8.7,9.1-15.4,20.1-19.7,31.8C11,69.7,9.4,75.7,8.3,81.9C7.3,88,6.8,94.3,6.8,100.5c0.1,12.4,2.5,24.8,7.2,36.3
		c2.3,5.8,5.2,11.3,8.5,16.5c3.3,5.2,7.2,10.1,11.5,14.6c8.5,9,18.9,16.3,30.2,21.5c11.3,5.2,23.8,8.1,36.3,8.1l4.7-0.1l4.7-0.4
		c1.6-0.2,3.1-0.4,4.7-0.6c1.6-0.2,3.1-0.6,4.6-0.8c6.1-1.4,12.1-3.3,17.8-5.9c5.7-2.5,11.1-5.8,16.1-9.4c5-3.6,9.7-7.8,14-12.2
		c8.6-9,15.5-19.6,20.1-31.2C191.8,125.4,194.2,113,194.3,100.5z M166.9,167.8c-4.3,4.5-9.1,8.5-14.2,11.9
		c-5.1,3.5-10.6,6.4-16.3,8.7c-5.7,2.4-11.6,4.2-17.6,5.3c-1.5,0.3-3,0.6-4.5,0.8c-1.5,0.2-3,0.4-4.6,0.6l-4.6,0.3l-4.6,0.1
		c-12.2,0-24.6-2.1-36-6.8c-11.5-4.6-21.8-11.9-30.4-20.8c-4.3-4.5-8.2-9.4-11.5-14.6c-3.4-5.2-6.2-10.8-8.5-16.5
		c-4.6-11.5-6.8-23.9-6.7-36.3c0.1-6.2,0.7-12.4,2-18.4c1.3-6,3.2-12,5.5-17.6C19.8,53.3,26.7,43,35.2,34.2
		c3.9-4.7,8.7-8.6,13.7-12.1c5-3.5,10.4-6.4,16-8.7c11.2-4.7,23.4-7,35.6-7.1c12.1,0,24.3,2.3,35.6,6.9c5.7,2.3,11.1,5.2,16.1,8.7
		s9.8,7.5,14.1,11.9c8.5,8.8,15.4,19.2,20,30.7c4.6,11.4,7,23.7,7.1,36.1c0,12.4-2.3,24.7-6.7,36.2
		C182.2,148.3,175.4,158.9,166.9,167.8z"/>
</g></g><g class="sampleIcons_1" transform="scale(0.6006006006006006) translate(825.6659999999999,451.72499999999997)" fill="#a09a3a"><path d="M45.30-27L54.45-0.30L54.45-0.30Q54.60 0.15 54.38 0.45L54.38 0.45L54.38 0.45Q54.15 0.75 53.70 0.75L53.70 0.75L42.90 0.75L42.90 0.75Q42.30 0.75 42.15 0.30L42.15 0.30L34.35-22.20L34.35-22.20Q32.85-22.05 31.20-22.05L31.20-22.05L31.20-22.05Q31.05-22.05 30.90-22.05L30.90-22.05L22.95-22.05L22.95 0L22.95 0Q22.95 0.75 22.20 0.75L22.20 0.75L22.20 0.75Q21.45 0.75 21.45 0L21.45 0L21.45-103.50L19.35-103.50L19.35 0L19.35 0Q19.35 0.75 18.60 0.75L18.60 0.75L8.25 0.75L8.25 0.75Q7.50 0.75 7.50 0L7.50 0L7.50-104.25L7.50-104.25Q7.50-105 8.25-105L8.25-105L18.60-105L30.90-105L30.90-105Q31.05-105 31.20-105L31.20-105L31.20-105Q40.80-104.85 47.48-98.02L47.48-98.02L47.48-98.02Q54.15-91.20 54.15-81.60L54.15-81.60L54.15-45.30L54.15-45.30Q54.15-34.05 45.30-27L45.30-27ZM42.30-45.30L42.30-45.30L42.30-81.60L42.30-81.60Q42.30-90.45 39.07-96.83L39.07-96.83L39.07-96.83Q35.85-103.20 31.20-103.50L31.20-103.50L31.20-103.50Q31.20-103.50 31.05-103.50L31.05-103.50L31.05-103.50Q30.90-103.50 30.90-103.50L30.90-103.50L22.95-103.50L22.95-23.55L30.90-23.55L30.90-23.55Q30.90-23.55 30.97-23.55L30.97-23.55L30.97-23.55Q31.05-23.55 31.20-23.55L31.20-23.55L31.20-23.55Q32.70-23.55 34.35-24.45L34.35-24.45L34.35-24.45Q37.50-26.55 39.75-31.50L39.75-31.50L39.75-31.50Q40.50-33.45 41.10-35.40L41.10-35.40L41.10-35.40Q42.30-40.05 42.30-45.30ZM116.10-81.60L116.10-74.70L116.10-74.70Q116.10-66.60 111.22-60.38L111.22-60.38L111.22-60.38Q106.35-54.15 98.70-52.05L98.70-52.05L98.70-52.05Q106.35-50.10 111.22-43.88L111.22-43.88L111.22-43.88Q116.10-37.65 116.10-29.55L116.10-29.55L116.10-22.65L116.10-22.65Q116.10-12.90 109.27-6.08L109.27-6.08L109.27-6.08Q102.45 0.75 92.85 0.75L92.85 0.75L70.20 0.75L70.20 0.75Q69.45 0.75 69.45 0L69.45 0L69.45-104.25L69.45-104.25Q69.45-105 70.20-105L70.20-105L92.85-105L92.85-105Q102.45-105 109.27-98.17L109.27-98.17L109.27-98.17Q116.10-91.35 116.10-81.60L116.10-81.60ZM81.30-0.75L83.40-0.75L83.40-103.50L81.30-103.50L81.30-0.75ZM104.25-22.65L104.25-29.55L104.25-29.55Q104.25-38.25 101.10-44.63L101.10-44.63L101.10-44.63Q97.95-51 93.30-51.30L93.30-51.30L93.30-51.30Q93.30-51.30 93.07-51.30L93.07-51.30L93.07-51.30Q92.85-51.30 92.85-51.30L92.85-51.30L84.90-51.30L84.90-0.75L92.85-0.75L92.85-0.75Q97.50-0.75 100.88-7.13L100.88-7.13L100.88-7.13Q104.25-13.50 104.25-22.65L104.25-22.65ZM104.25-74.70L104.25-74.70L104.25-81.60L104.25-81.60Q104.25-90.75 100.88-97.13L100.88-97.13L100.88-97.13Q97.50-103.50 92.85-103.50L92.85-103.50L84.90-103.50L84.90-52.80L92.85-52.95L92.85-52.95L92.85-52.95Q92.85-52.95 93.15-52.95L93.15-52.95L93.15-52.95Q93.30-52.95 93.30-52.95L93.30-52.95L93.30-52.95Q97.95-53.25 101.10-59.63L101.10-59.63L101.10-59.63Q104.25-66 104.25-74.70ZM150.75-52.80L150.75-52.80L150.75-52.80Q160.35-52.80 167.17-45.98L167.17-45.98L167.17-45.98Q174-39.15 174-29.55L174-29.55L174-22.50L174-22.50Q174-12.90 167.17-6.08L167.17-6.08L167.17-6.08Q160.35 0.75 150.67 0.75L150.67 0.75L150.67 0.75Q141 0.75 134.17-6.08L134.17-6.08L134.17-6.08Q127.35-12.90 127.35-22.50L127.35-22.50L127.35-22.50Q127.35-23.25 128.10-23.25L128.10-23.25L138.45-23.25L138.45-23.25Q139.20-23.25 139.20-22.50L139.20-22.50L139.20-22.50Q139.20-16.35 140.92-11.10L140.92-11.10L140.92-11.10Q142.65-5.85 145.50-3.15L145.50-3.15L145.50-3.15Q141.30-10.05 141.30-22.50L141.30-22.50L141.30-22.50Q141.30-23.25 142.05-23.25L142.05-23.25L142.05-23.25Q142.80-23.25 142.80-22.50L142.80-22.50L142.80-22.50Q142.80-13.20 145.28-6.97L145.28-6.97L145.28-6.97Q147.75-0.75 150.75-0.75L150.75-0.75L150.75-0.75Q155.40-0.75 158.77-7.13L158.77-7.13L158.77-7.13Q162.15-13.50 162.15-22.50L162.15-22.50L162.15-29.55L162.15-29.55Q162.15-38.55 158.77-44.92L158.77-44.92L158.77-44.92Q155.40-51.30 150.75-51.30L150.75-51.30L150.75-51.30Q141-51.30 134.17-58.20L134.17-58.20L134.17-58.20Q127.35-65.10 127.35-74.70L127.35-74.70L127.35-81.60L127.35-81.60Q127.35-91.35 134.17-98.17L134.17-98.17L134.17-98.17Q141-105 150.67-105L150.67-105L150.67-105Q160.35-105 167.17-98.17L167.17-98.17L167.17-98.17Q174-91.35 174-81.60L174-81.60L174-81.60Q174-80.85 173.25-80.85L173.25-80.85L162.90-80.85L162.90-80.85Q162.15-80.85 162.15-81.60L162.15-81.60L162.15-81.60Q162.15-90.75 158.77-97.13L158.77-97.13L158.77-97.13Q155.40-103.50 150.75-103.50L150.75-103.50L150.75-103.50Q147.75-103.50 145.28-97.27L145.28-97.27L145.28-97.27Q142.80-91.05 142.80-81.60L142.80-81.60L142.80-74.70L142.80-74.70Q142.80-69.90 143.55-65.77L143.55-65.77L143.55-65.77Q144.30-61.65 145.35-58.88L145.35-58.88L145.35-58.88Q146.40-56.10 147.82-54.45L147.82-54.45L147.82-54.45Q149.25-52.80 150.75-52.80ZM139.20-81.60L139.20-74.70L139.20-74.70Q139.20-68.40 140.92-63.22L140.92-63.22L140.92-63.22Q142.65-58.05 145.50-55.35L145.50-55.35L145.50-55.35Q141.30-62.10 141.30-74.70L141.30-74.70L141.30-81.60L141.30-81.60Q141.30-94.20 145.50-101.10L145.50-101.10L145.50-101.10Q142.65-98.25 140.92-93.08L140.92-93.08L140.92-93.08Q139.20-87.90 139.20-81.60L139.20-81.60Z"/></g></g><g class="sampleTexts_1" transform="scale(1) translate(-0.0000030517578011313162,67.53315734863281)"><g class="logo--name svgLogoName_1 logoNameBox1" transform="scale(1) translate(-238.0900270462036,162.47443389892578)" fill="url(#textGradient3513616035)"><path d="M14.37-28.75L14.37-47.89L33.55-47.89L33.55-47.89Q37.52-47.89 40.32-45.08L40.32-45.08L40.32-45.08Q43.12-42.28 43.12-38.32L43.12-38.32L43.12-38.32Q43.12-34.35 40.32-31.55L40.32-31.55L40.32-31.55Q37.52-28.75 33.55-28.75L33.55-28.75L14.37-28.75ZM9.61 0L9.61 0Q11.57 0 12.97-1.40L12.97-1.40L12.97-1.40Q14.37-2.80 14.37-4.80L14.37-4.80L14.37-19.14L33.27-19.14L43.84-2.24L43.84-2.24Q45.24 0 47.93 0L47.93 0L47.93 0Q49.29 0 50.45-0.72L50.45-0.72L50.45-0.72Q52.13-1.76 52.57-3.72L52.57-3.72L52.57-3.72Q53.01-5.65 51.97-7.33L51.97-7.33L43.00-21.66L43.00-21.66Q47.41-24.18 50.01-28.55L50.01-28.55L50.01-28.55Q52.69-33.07 52.69-38.32L52.69-38.32L52.69-38.32Q52.69-46.25 47.09-51.85L47.09-51.85L47.09-51.85Q41.48-57.46 33.55-57.46L33.55-57.46L9.61-57.46L9.61-57.46Q7.61-57.46 6.21-56.05L6.21-56.05L6.21-56.05Q4.80-54.65 4.80-52.69L4.80-52.69L4.80-4.80L4.80-4.80Q4.80-2.80 6.21-1.40L6.21-1.40L6.21-1.40Q7.61 0 9.61 0L9.61 0ZM90.17-47.89L90.17-47.89Q98.10-47.89 103.70-42.28L103.70-42.28L103.70-42.28Q109.31-36.68 109.31-28.75L109.31-28.75L109.31-28.75Q109.31-20.82 103.70-15.21L103.70-15.21L103.70-15.21Q98.10-9.57 90.17-9.57L90.17-9.57L90.17-9.57Q82.24-9.57 76.63-15.21L76.63-15.21L76.63-15.21Q70.99-20.82 70.99-28.75L70.99-28.75L70.99-28.75Q70.99-36.68 76.63-42.28L76.63-42.28L76.63-42.28Q82.24-47.89 90.17-47.89L90.17-47.89ZM90.17 0L90.17 0Q102.02 0 110.47-8.41L110.47-8.41L110.47-8.41Q118.88-16.86 118.88-28.75L118.88-28.75L118.88-28.75Q118.88-40.60 110.47-49.05L110.47-49.05L110.47-49.05Q102.02-57.46 90.17-57.46L90.17-57.46L90.17-57.46Q78.28-57.46 69.83-49.05L69.83-49.05L69.83-49.05Q61.42-40.60 61.42-28.75L61.42-28.75L61.42-28.75Q61.42-16.86 69.83-8.41L69.83-8.41L69.83-8.41Q78.28 0 90.17 0L90.17 0ZM157.23 0L157.23 0Q169.13 0 177.53-8.41L177.53-8.41L177.53-8.41Q178.93-9.81 178.93-11.81L178.93-11.81L178.93-11.81Q178.93-13.77 177.53-15.17L177.53-15.17L177.53-15.17Q176.13-16.58 174.17-16.58L174.17-16.58L174.17-16.58Q172.17-16.58 170.77-15.17L170.77-15.17L170.77-15.17Q165.16-9.57 157.23-9.57L157.23-9.57L157.23-9.57Q149.27-9.57 143.66-15.17L143.66-15.17L143.66-15.17Q138.05-20.78 138.05-28.75L138.05-28.75L138.05-28.75Q138.05-36.68 143.66-42.28L143.66-42.28L143.66-42.28Q149.27-47.89 157.23-47.89L157.23-47.89L157.23-47.89Q165.16-47.89 170.77-42.28L170.77-42.28L170.77-42.28Q172.17-40.88 174.17-40.88L174.17-40.88L174.17-40.88Q176.13-40.88 177.53-42.28L177.53-42.28L177.53-42.28Q178.93-43.68 178.93-45.68L178.93-45.68L178.93-45.68Q178.93-47.65 177.53-49.05L177.53-49.05L177.53-49.05Q169.13-57.46 157.23-57.46L157.23-57.46L157.23-57.46Q145.30-57.46 136.89-49.05L136.89-49.05L136.89-49.05Q128.49-40.64 128.49-28.75L128.49-28.75L128.49-28.75Q128.49-16.82 136.89-8.41L136.89-8.41L136.89-8.41Q145.30 0 157.23 0L157.23 0ZM193.35 0L193.35 0Q195.31 0 196.71-1.40L196.71-1.40L196.71-1.40Q198.11-2.80 198.11-4.80L198.11-4.80L198.11-19.82L198.11-19.82Q198.47-19.98 198.71-20.22L198.71-20.22L203.44-23.98L228.42-1.24L228.42-1.24Q229.78 0 231.63 0L231.63 0L231.63 0Q233.75 0 235.19-1.56L235.19-1.56L235.19-1.56Q236.51-3.04 236.43-5.00L236.43-5.00L236.43-5.00Q236.35-7.01 234.87-8.33L234.87-8.33L211.01-30.03L234.63-48.93L234.63-48.93Q236.19-50.17 236.39-52.17L236.39-52.17L236.39-52.17Q236.63-54.13 235.39-55.65L235.39-55.65L235.39-55.65Q234.15-57.22 232.19-57.46L232.19-57.46L232.19-57.46Q230.18-57.66 228.66-56.42L228.66-56.42L198.11-31.99L198.11-52.69L198.11-52.69Q198.11-54.65 196.71-56.05L196.71-56.05L196.71-56.05Q195.31-57.46 193.35-57.46L193.35-57.46L193.35-57.46Q191.35-57.46 189.95-56.05L189.95-56.05L189.95-56.05Q188.54-54.65 188.54-52.69L188.54-52.69L188.54-4.80L188.54-4.80Q188.54-2.80 189.95-1.40L189.95-1.40L189.95-1.40Q191.35 0 193.35 0L193.35 0ZM247.32-50.01L265.70-22.50L265.70-4.80L265.70-4.80Q265.70-2.80 267.10-1.40L267.10-1.40L267.10-1.40Q268.50 0 270.46 0L270.46 0L270.46 0Q272.47 0 273.87-1.40L273.87-1.40L273.87-1.40Q275.27-2.80 275.27-4.80L275.27-4.80L275.27-22.50L293.61-50.01L293.61-50.01Q294.73-51.69 294.33-53.61L294.33-53.61L294.33-53.61Q293.93-55.57 292.29-56.66L292.29-56.66L292.29-56.66Q290.64-57.78 288.68-57.38L288.68-57.38L288.68-57.38Q286.76-56.98 285.64-55.33L285.64-55.33L270.46-32.59L255.29-55.33L255.29-55.33Q254.21-56.98 252.25-57.38L252.25-57.38L252.25-57.38Q250.32-57.78 248.64-56.66L248.64-56.66L248.64-56.66Q247.00-55.57 246.64-53.61L246.64-53.61L246.64-53.61Q246.24-51.69 247.32-50.01L247.32-50.01ZM334.25-9.57L334.25-23.94L355.79-23.94L355.79-23.94Q358.79-23.94 360.87-21.82L360.87-21.82L360.87-21.82Q362.99-19.74 362.99-16.78L362.99-16.78L362.99-16.78Q362.99-13.77 360.87-11.69L360.87-11.69L360.87-11.69Q358.79-9.57 355.79-9.57L355.79-9.57L334.25-9.57ZM334.25-33.51L334.25-47.89L351.02-47.89L351.02-47.89Q353.99-47.89 356.11-45.80L356.11-45.80L356.11-45.80Q358.19-43.68 358.19-40.72L358.19-40.72L358.19-40.72Q358.19-37.76 356.11-35.63L356.11-35.63L356.11-35.63Q353.99-33.51 351.02-33.51L351.02-33.51L334.25-33.51ZM329.48 0L355.79 0L355.79 0Q362.75 0 367.64-4.92L367.64-4.92L367.64-4.92Q372.56-9.85 372.56-16.78L372.56-16.78L372.56-16.78Q372.56-26.07 364.68-30.99L364.68-30.99L364.68-30.99Q367.80-35.35 367.80-40.72L367.80-40.72L367.80-40.72Q367.80-47.65 362.87-52.57L362.87-52.57L362.87-52.57Q357.95-57.46 351.02-57.46L351.02-57.46L329.48-57.46L329.48-57.46Q327.48-57.46 326.08-56.05L326.08-56.05L326.08-56.05Q324.68-54.65 324.68-52.69L324.68-52.69L324.68-4.80L324.68-4.80Q324.68-2.80 326.08-1.40L326.08-1.40L326.08-1.40Q327.48 0 329.48 0L329.48 0ZM391.74-28.75L391.74-47.89L410.92-47.89L410.92-47.89Q414.88-47.89 417.69-45.08L417.69-45.08L417.69-45.08Q420.49-42.28 420.49-38.32L420.49-38.32L420.49-38.32Q420.49-34.35 417.69-31.55L417.69-31.55L417.69-31.55Q414.88-28.75 410.92-28.75L410.92-28.75L391.74-28.75ZM386.98 0L386.98 0Q388.94 0 390.34-1.40L390.34-1.40L390.34-1.40Q391.74-2.80 391.74-4.80L391.74-4.80L391.74-19.14L410.64-19.14L421.21-2.24L421.21-2.24Q422.61 0 425.29 0L425.29 0L425.29 0Q426.66 0 427.82-0.72L427.82-0.72L427.82-0.72Q429.50-1.76 429.94-3.72L429.94-3.72L429.94-3.72Q430.38-5.65 429.34-7.33L429.34-7.33L420.37-21.66L420.37-21.66Q424.77-24.18 427.38-28.55L427.38-28.55L427.38-28.55Q430.06-33.07 430.06-38.32L430.06-38.32L430.06-38.32Q430.06-46.25 424.45-51.85L424.45-51.85L424.45-51.85Q418.85-57.46 410.92-57.46L410.92-57.46L386.98-57.46L386.98-57.46Q384.98-57.46 383.57-56.05L383.57-56.05L383.57-56.05Q382.17-54.65 382.17-52.69L382.17-52.69L382.17-4.80L382.17-4.80Q382.17-2.80 383.57-1.40L383.57-1.40L383.57-1.40Q384.98 0 386.98 0L386.98 0ZM453.96-21.58L462.69-41.04L471.46-21.58L453.96-21.58ZM439.19-0.44L439.19-0.44Q440.99 0.36 442.83-0.32L442.83-0.32L442.83-0.32Q444.71-1.04 445.51-2.84L445.51-2.84L449.64-11.97L475.78-11.97L479.87-2.84L479.87-2.84Q481.15 0 484.27 0L484.27 0L484.27 0Q485.27 0 486.23-0.44L486.23-0.44L486.23-0.44Q488.04-1.24 488.72-3.12L488.72-3.12L488.72-3.12Q489.44-4.96 488.64-6.77L488.64-6.77L467.06-54.65L467.06-54.65Q465.81-57.50 462.69-57.50L462.69-57.50L462.69-57.50Q459.61-57.50 458.33-54.65L458.33-54.65L436.79-6.77L436.79-6.77Q435.99-4.96 436.67-3.12L436.67-3.12L436.67-3.12Q437.39-1.24 439.19-0.44L439.19-0.44ZM503.85 0L503.85 0Q505.81 0 507.21-1.40L507.21-1.40L507.21-1.40Q508.62-2.80 508.62-4.80L508.62-4.80L508.62-39.64L540.89-1.68L540.89-1.68Q542.33 0 544.53 0L544.53 0L544.53 0Q545.41 0 546.21-0.28L546.21-0.28L546.21-0.28Q549.34-1.44 549.34-4.80L549.34-4.80L549.34-52.69L549.34-52.69Q549.34-54.65 547.93-56.05L547.93-56.05L547.93-56.05Q546.53-57.46 544.53-57.46L544.53-57.46L544.53-57.46Q542.57-57.46 541.17-56.05L541.17-56.05L541.17-56.05Q539.77-54.65 539.77-52.69L539.77-52.69L539.77-17.82L507.50-55.77L507.50-55.77Q505.33-58.34 502.17-57.18L502.17-57.18L502.17-57.18Q499.05-56.01 499.05-52.69L499.05-52.69L499.05-4.80L499.05-4.80Q499.05-2.80 500.45-1.40L500.45-1.40L500.45-1.40Q501.85 0 503.85 0L503.85 0ZM587.69 0L587.69 0Q599.58 0 607.99-8.41L607.99-8.41L607.99-8.41Q609.39-9.81 609.39-11.81L609.39-11.81L609.39-11.81Q609.39-13.77 607.99-15.17L607.99-15.17L607.99-15.17Q606.59-16.58 604.63-16.58L604.63-16.58L604.63-16.58Q602.63-16.58 601.23-15.17L601.23-15.17L601.23-15.17Q595.62-9.57 587.69-9.57L587.69-9.57L587.69-9.57Q579.73-9.57 574.12-15.17L574.12-15.17L574.12-15.17Q568.51-20.78 568.51-28.75L568.51-28.75L568.51-28.75Q568.51-36.68 574.12-42.28L574.12-42.28L574.12-42.28Q579.73-47.89 587.69-47.89L587.69-47.89L587.69-47.89Q595.62-47.89 601.23-42.28L601.23-42.28L601.23-42.28Q602.63-40.88 604.63-40.88L604.63-40.88L604.63-40.88Q606.59-40.88 607.99-42.28L607.99-42.28L607.99-42.28Q609.39-43.68 609.39-45.68L609.39-45.68L609.39-45.68Q609.39-47.65 607.99-49.05L607.99-49.05L607.99-49.05Q599.58-57.46 587.69-57.46L587.69-57.46L587.69-57.46Q575.76-57.46 567.35-49.05L567.35-49.05L567.35-49.05Q558.95-40.64 558.95-28.75L558.95-28.75L558.95-28.75Q558.95-16.82 567.35-8.41L567.35-8.41L567.35-8.41Q575.76 0 587.69 0L587.69 0ZM623.81 0L623.81 0Q625.77 0 627.17-1.40L627.17-1.40L627.17-1.40Q628.57-2.80 628.57-4.80L628.57-4.80L628.57-23.94L657.32-23.94L657.32-4.80L657.32-4.80Q657.32-2.80 658.72-1.40L658.72-1.40L658.72-1.40Q660.12 0 662.13 0L662.13 0L662.13 0Q664.09 0 665.49-1.40L665.49-1.40L665.49-1.40Q666.89-2.80 666.89-4.80L666.89-4.80L666.89-52.69L666.89-52.69Q666.89-54.65 665.49-56.05L665.49-56.05L665.49-56.05Q664.09-57.46 662.13-57.46L662.13-57.46L662.13-57.46Q660.12-57.46 658.72-56.05L658.72-56.05L658.72-56.05Q657.32-54.65 657.32-52.69L657.32-52.69L657.32-33.51L628.57-33.51L628.57-52.69L628.57-52.69Q628.57-54.65 627.17-56.05L627.17-56.05L627.17-56.05Q625.77-57.46 623.81-57.46L623.81-57.46L623.81-57.46Q621.81-57.46 620.41-56.05L620.41-56.05L620.41-56.05Q619.00-54.65 619.00-52.69L619.00-52.69L619.00-4.80L619.00-4.80Q619.00-2.80 620.41-1.40L620.41-1.40L620.41-1.40Q621.81 0 623.81 0L623.81 0Z"/></g><g class="logo--name svgLogoName_2 logoNameBox2" transform="scale(1) translate(118.18000297546388,240)" fill="url(#text2Gradient3513616035)"><path d="M41.36-12.41L41.36-12.41Q34.83-8.89 26.47-9.73L26.47-9.73L26.47-9.73Q18.10-10.57 13.45-15.21L13.45-15.21L13.45-15.21Q12.05-16.62 10.09-16.62L10.09-16.62L10.09-16.62Q8.09-16.62 6.69-15.21L6.69-15.21L6.69-15.21Q5.29-13.81 5.29-11.81L5.29-11.81L5.29-11.81Q5.29-9.85 6.69-8.45L6.69-8.45L6.69-8.45Q15.13 0 29.39 0L29.39 0L29.39 0Q38.52 0 45.88-3.96L45.88-3.96L45.88-3.96Q48.33-5.29 50.09-7.45L50.09-7.45L50.09-7.45Q54.29-12.65 53.05-18.98L53.05-18.98L53.05-18.98Q51.73-25.63 45.44-29.03L45.44-29.03L45.44-29.03Q41.64-31.11 34.11-32.55L34.11-32.55L33.51-32.67L33.51-32.67Q27.95-33.75 22.46-35.39L22.46-35.39L22.46-35.39Q22.18-35.47 21.62-35.63L21.62-35.63L21.62-35.63Q18.22-36.64 17.02-37.32L17.02-37.32L17.02-37.32Q15.50-38.16 15.05-39.60L15.05-39.60L15.05-39.60Q14.29-42.16 16.10-44.08L16.10-44.08L16.10-44.08Q20.18-48.53 31.11-47.85L31.11-47.85L31.11-47.85Q40.16-47.29 45.16-42.28L45.16-42.28L45.16-42.28Q46.57-40.88 48.57-40.88L48.57-40.88L48.57-40.88Q50.53-40.88 51.93-42.28L51.93-42.28L51.93-42.28Q53.33-43.68 53.33-45.68L53.33-45.68L53.33-45.68Q53.33-47.65 51.93-49.05L51.93-49.05L51.93-49.05Q44.40-56.62 31.71-57.42L31.71-57.42L31.71-57.42Q16.26-58.38 9.05-50.61L9.05-50.61L9.05-50.61Q6.53-47.89 5.69-44.12L5.69-44.12L5.69-44.12Q4.80-40.36 5.89-36.84L5.89-36.84L5.89-36.84Q7.33-32.11 11.53-29.47L11.53-29.47L11.53-29.47Q13.93-27.95 18.94-26.47L18.94-26.47L18.94-26.47Q19.42-26.31 19.70-26.23L19.70-26.23L19.70-26.23Q25.63-24.46 31.67-23.26L31.67-23.26L32.31-23.14L32.31-23.14Q38.40-21.98 40.88-20.62L40.88-20.62L40.88-20.62Q43.20-19.34 43.64-17.10L43.64-17.10L43.64-17.10Q44.00-15.21 42.60-13.45L42.60-13.45L42.60-13.45Q42.08-12.81 41.36-12.41L41.36-12.41ZM63.90-47.89L78.24-47.89L78.24-4.80L78.24-4.80Q78.24-2.80 79.64-1.40L79.64-1.40L79.64-1.40Q81.08 0 83.04 0L83.04 0L83.04 0Q85.04 0 86.44-1.40L86.44-1.40L86.44-1.40Q87.85-2.80 87.85-4.80L87.85-4.80L87.85-47.89L102.22-47.89L102.22-47.89Q104.18-47.89 105.58-49.29L105.58-49.29L105.58-49.29Q106.98-50.69 106.98-52.69L106.98-52.69L106.98-52.69Q106.98-54.65 105.58-56.05L105.58-56.05L105.58-56.05Q104.18-57.46 102.22-57.46L102.22-57.46L63.90-57.46L63.90-57.46Q61.90-57.46 60.50-56.05L60.50-56.05L60.50-56.05Q59.10-54.65 59.10-52.69L59.10-52.69L59.10-52.69Q59.10-50.69 60.50-49.29L60.50-49.29L60.50-49.29Q61.90-47.89 63.90-47.89L63.90-47.89ZM141.74 0L141.74 0Q152.15 0 159.52-7.37L159.52-7.37L159.52-7.37Q166.88-14.73 166.88-25.14L166.88-25.14L166.88-52.69L166.88-52.69Q166.88-54.65 165.48-56.05L165.48-56.05L165.48-56.05Q164.08-57.46 162.08-57.46L162.08-57.46L162.08-57.46Q160.12-57.46 158.71-56.05L158.71-56.05L158.71-56.05Q157.31-54.65 157.31-52.69L157.31-52.69L157.31-25.14L157.31-25.14Q157.31-18.70 152.75-14.13L152.75-14.13L152.75-14.13Q148.18-9.57 141.74-9.57L141.74-9.57L141.74-9.57Q135.29-9.57 130.73-14.13L130.73-14.13L130.73-14.13Q126.16-18.70 126.16-25.14L126.16-25.14L126.16-52.69L126.16-52.69Q126.16-54.65 124.76-56.05L124.76-56.05L124.76-56.05Q123.36-57.46 121.40-57.46L121.40-57.46L121.40-57.46Q119.40-57.46 118.00-56.05L118.00-56.05L118.00-56.05Q116.59-54.65 116.59-52.69L116.59-52.69L116.59-25.14L116.59-25.14Q116.59-14.73 123.96-7.37L123.96-7.37L123.96-7.37Q131.33 0 141.74 0L141.74 0ZM186.06-9.57L186.06-47.89L195.63-47.89L195.63-47.89Q203.56-47.89 209.20-42.28L209.20-42.28L209.20-42.28Q214.81-36.68 214.81-28.75L214.81-28.75L214.81-28.75Q214.81-20.82 209.20-15.21L209.20-15.21L209.20-15.21Q203.56-9.57 195.63-9.57L195.63-9.57L186.06-9.57ZM181.30 0L195.63 0L195.63 0Q207.52 0 215.97-8.41L215.97-8.41L215.97-8.41Q224.38-16.86 224.38-28.75L224.38-28.75L224.38-28.75Q224.38-40.60 215.97-49.05L215.97-49.05L215.97-49.05Q207.52-57.46 195.63-57.46L195.63-57.46L181.30-57.46L181.30-57.46Q179.29-57.46 177.89-56.05L177.89-56.05L177.89-56.05Q176.49-54.65 176.49-52.69L176.49-52.69L176.49-4.80L176.49-4.80Q176.49-2.80 177.89-1.40L177.89-1.40L177.89-1.40Q179.29 0 181.30 0L181.30 0ZM238.79 0L238.79 0Q240.75 0 242.16-1.40L242.16-1.40L242.16-1.40Q243.56-2.80 243.56-4.80L243.56-4.80L243.56-52.69L243.56-52.69Q243.56-54.65 242.16-56.05L242.16-56.05L242.16-56.05Q240.75-57.46 238.79-57.46L238.79-57.46L238.79-57.46Q236.79-57.46 235.39-56.05L235.39-56.05L235.39-56.05Q233.99-54.65 233.99-52.69L233.99-52.69L233.99-4.80L233.99-4.80Q233.99-2.80 235.39-1.40L235.39-1.40L235.39-1.40Q236.79 0 238.79 0L238.79 0ZM281.92-47.89L281.92-47.89Q289.84-47.89 295.45-42.28L295.45-42.28L295.45-42.28Q301.05-36.68 301.05-28.75L301.05-28.75L301.05-28.75Q301.05-20.82 295.45-15.21L295.45-15.21L295.45-15.21Q289.84-9.57 281.92-9.57L281.92-9.57L281.92-9.57Q273.99-9.57 268.38-15.21L268.38-15.21L268.38-15.21Q262.74-20.82 262.74-28.75L262.74-28.75L262.74-28.75Q262.74-36.68 268.38-42.28L268.38-42.28L268.38-42.28Q273.99-47.89 281.92-47.89L281.92-47.89ZM281.92 0L281.92 0Q293.77 0 302.21-8.41L302.21-8.41L302.21-8.41Q310.62-16.86 310.62-28.75L310.62-28.75L310.62-28.75Q310.62-40.60 302.21-49.05L302.21-49.05L302.21-49.05Q293.77-57.46 281.92-57.46L281.92-57.46L281.92-57.46Q270.02-57.46 261.58-49.05L261.58-49.05L261.58-49.05Q253.17-40.60 253.17-28.75L253.17-28.75L253.17-28.75Q253.17-16.86 261.58-8.41L261.58-8.41L261.58-8.41Q270.02 0 281.92 0L281.92 0Z"/></g><g id="" class="logo--name svgSloganText_1 sloganBox" transform="scale(1) translate(428.8,254.4)" fill="#006269"></g></g></g></g></svg>